<mxfile host="app.diagrams.net" modified="2022-09-21T05:51:07.636Z" agent="5.0 (Windows NT 10.0; Win64; x64) AppleWebKit/537.36 (KHTML, like Gecko) Chrome/105.0.0.0 Safari/537.36 Edg/105.0.1343.42" etag="x7v2hcLW4KP2fihFxMY1" version="20.3.3" type="github">
  <diagram id="KVBR-SX3pHHIZkB29C4x" name="Page-1">
    <mxGraphModel dx="1421" dy="794" grid="1" gridSize="10" guides="1" tooltips="1" connect="1" arrows="1" fold="1" page="1" pageScale="1" pageWidth="827" pageHeight="1169" math="0" shadow="0">
      <root>
        <mxCell id="0" />
        <mxCell id="1" parent="0" />
        <mxCell id="7lGdjqYl_pk0UNCLgn26-3" value="" style="edgeStyle=orthogonalEdgeStyle;rounded=0;orthogonalLoop=1;jettySize=auto;html=1;" edge="1" parent="1" source="7lGdjqYl_pk0UNCLgn26-1" target="7lGdjqYl_pk0UNCLgn26-2">
          <mxGeometry relative="1" as="geometry" />
        </mxCell>
        <mxCell id="7lGdjqYl_pk0UNCLgn26-1" value="START" style="rounded=1;whiteSpace=wrap;html=1;" vertex="1" parent="1">
          <mxGeometry width="120" height="60" as="geometry" />
        </mxCell>
        <mxCell id="7lGdjqYl_pk0UNCLgn26-5" value="" style="edgeStyle=orthogonalEdgeStyle;rounded=0;orthogonalLoop=1;jettySize=auto;html=1;" edge="1" parent="1" source="7lGdjqYl_pk0UNCLgn26-2" target="7lGdjqYl_pk0UNCLgn26-4">
          <mxGeometry relative="1" as="geometry" />
        </mxCell>
        <mxCell id="7lGdjqYl_pk0UNCLgn26-2" value="int num1;&lt;br&gt;int num2;" style="shape=parallelogram;perimeter=parallelogramPerimeter;whiteSpace=wrap;html=1;fixedSize=1;rounded=1;" vertex="1" parent="1">
          <mxGeometry y="140" width="120" height="60" as="geometry" />
        </mxCell>
        <mxCell id="7lGdjqYl_pk0UNCLgn26-7" value="" style="edgeStyle=orthogonalEdgeStyle;rounded=0;orthogonalLoop=1;jettySize=auto;html=1;" edge="1" parent="1" source="7lGdjqYl_pk0UNCLgn26-4" target="7lGdjqYl_pk0UNCLgn26-6">
          <mxGeometry relative="1" as="geometry" />
        </mxCell>
        <mxCell id="7lGdjqYl_pk0UNCLgn26-4" value="Sum = num1 + num2" style="whiteSpace=wrap;html=1;rounded=1;" vertex="1" parent="1">
          <mxGeometry y="280" width="120" height="60" as="geometry" />
        </mxCell>
        <mxCell id="7lGdjqYl_pk0UNCLgn26-9" value="" style="edgeStyle=orthogonalEdgeStyle;rounded=0;orthogonalLoop=1;jettySize=auto;html=1;" edge="1" parent="1" source="7lGdjqYl_pk0UNCLgn26-6" target="7lGdjqYl_pk0UNCLgn26-8">
          <mxGeometry relative="1" as="geometry" />
        </mxCell>
        <mxCell id="7lGdjqYl_pk0UNCLgn26-6" value="SUM" style="shape=parallelogram;perimeter=parallelogramPerimeter;whiteSpace=wrap;html=1;fixedSize=1;rounded=1;" vertex="1" parent="1">
          <mxGeometry y="420" width="120" height="60" as="geometry" />
        </mxCell>
        <mxCell id="7lGdjqYl_pk0UNCLgn26-8" value="END" style="whiteSpace=wrap;html=1;rounded=1;" vertex="1" parent="1">
          <mxGeometry y="560" width="120" height="60" as="geometry" />
        </mxCell>
        <mxCell id="7lGdjqYl_pk0UNCLgn26-12" value="&lt;h1&gt;&lt;span style=&quot;background-color: initial;&quot;&gt;PSEUDOCODE&lt;/span&gt;&lt;/h1&gt;&lt;h1&gt;&lt;span style=&quot;font-size: 12px; font-weight: 400;&quot;&gt;START&lt;/span&gt;&lt;/h1&gt;&lt;div&gt;&lt;span style=&quot;font-size: 12px; font-weight: 400;&quot;&gt;GET int num1;&lt;/span&gt;&lt;/div&gt;&lt;div&gt;&lt;span style=&quot;font-size: 12px; font-weight: 400;&quot;&gt;GET int num2;&lt;/span&gt;&lt;/div&gt;&lt;div&gt;&lt;span style=&quot;font-size: 12px; font-weight: 400;&quot;&gt;DO int sum = num1 + num2;&lt;/span&gt;&lt;/div&gt;&lt;div&gt;&lt;span style=&quot;font-size: 12px; font-weight: 400;&quot;&gt;END DO&amp;nbsp;&lt;/span&gt;&lt;/div&gt;&lt;div&gt;&lt;span style=&quot;font-size: 12px; font-weight: 400;&quot;&gt;PRINT sum;&lt;/span&gt;&lt;/div&gt;&lt;div&gt;&lt;span style=&quot;font-size: 12px; font-weight: 400;&quot;&gt;&lt;br&gt;&lt;/span&gt;&lt;/div&gt;&lt;div&gt;&lt;span style=&quot;font-size: 12px; font-weight: 400;&quot;&gt;END&lt;/span&gt;&lt;/div&gt;" style="text;html=1;strokeColor=none;fillColor=none;spacing=5;spacingTop=-20;whiteSpace=wrap;overflow=hidden;rounded=0;" vertex="1" parent="1">
          <mxGeometry x="160" y="20" width="190" height="450" as="geometry" />
        </mxCell>
      </root>
    </mxGraphModel>
  </diagram>
</mxfile>
